<svg width="100" height="100" viewBox="0 0 100 100" fill="none" xmlns="http://www.w3.org/2000/svg">
  <path
    d="M85 50C85 69.33 69.33 85 50 85C30.67 85 15 69.33 15 50C15 30.67 30.67 15 50 15C58 15 65 18 71 23"
    stroke="#1A1A1A"
    stroke-width="4"
    stroke-linecap="round"
    stroke-linejoin="round"
    opacity="0.9"
  />
  <path
    d="M74 27C78 32 81 40 81 50C81 67.1208 67.1208 81 50 81"
    stroke="#1A1A1A"
    stroke-width="1.5"
    stroke-linecap="round"
    opacity="0.3"
  />
  <path
    d="M48 35C48 35 45 38 45 45V65C45 68 47 70 50 70C53 70 55 68 55 65V45C55 38 52 35 52 35"
    fill="#1A1A1A"
    opacity="0.9"
  />
  <path
    d="M50 28V33"
    stroke="#1A1A1A"
    stroke-width="3"
    stroke-linecap="round"
  />
  <circle cx="28" cy="22" r="1.5" fill="#1A1A1A" opacity="0.4" />
  <circle cx="78" cy="72" r="1" fill="#1A1A1A" opacity="0.3" />
  <circle cx="22" cy="65" r="0.8" fill="#1A1A1A" opacity="0.2" />
</svg>
